# xmcd
# 
# Track frame offsets:
#     212
#     30497
#     50280
#     83550
#     104470
#     136017
#     160710
#     184675
#     212157
#     238245
#     257807
#     277530
#     283980
#     301697
# 
# Disc length: 4236
# 
# Revision: 2
# Processed by: cddbd v1.5.2PL0 Copyright (c) Steve Scherf et al.
# Submitted via: fre:ac v1.0.17
# 
DISCID=b3108a0e
DTITLE=Various Artist - How 'Bout Now
DYEAR=1993
DGENRE=Jazz
TTITLE0=Dexter Gordon - Cheesecake
TTITLE1=Mike Hoesfall - The Melody Stomp
TTITLE2=G Greshwin D Heward - Summertime
TTITLE3=Vince Gauraldi - The Red Baron
TTITLE4=Peter Boe - Later
TTITLE5=O Hammerstein S Ramberg - When I Grow Too Old To Dream
TTITLE6=Mike Horsfall - El Camino
TTITLE7=Kurt Deutscher Mike Horsfall - Breakfast At Blakey's
TTITLE8=Mike Horsfall - Southbound
TTITLE9=Kenny Barron - Voyage
TTITLE10=George Cables - Sweet Rita Suite (Her Soul)
TTITLE11=Mike Horsfall - Safe Sax
TTITLE12=Mike Horsfall - How 'Bout Now
TTITLE13=Mike Horsfall - Simple Pleasures
EXTD=YEAR: 1993
EXTT0=
EXTT1=
EXTT2=
EXTT3=
EXTT4=
EXTT5=
EXTT6=
EXTT7=
EXTT8=
EXTT9=
EXTT10=
EXTT11=
EXTT12=
EXTT13=
PLAYORDER=
